<?xml version="1.0" encoding="UTF-8" standalone="no"?>
<svg xmlns="http://www.w3.org/2000/svg" xmlns:xlink="http://www.w3.org/1999/xlink" xmlns:serif="http://www.serif.com/" width="100%" height="100%" viewBox="0 0 2476 943" version="1.1" xml:space="preserve" style="fill-rule:evenodd;clip-rule:evenodd;stroke-linejoin:round;stroke-miterlimit:2;">
    <g transform="matrix(1,0,0,1,-28,-962)">
        <g transform="matrix(0.1,0,0,-0.1,0,2560)">
            <path d="M7380,15980L7380,10540L8590,10540L8590,11520C8590,12115 8594,12500 8599,12500C8604,12500 8623,12475 8642,12444C8660,12413 8685,12371 8697,12351C8709,12331 8722,12308 8726,12300C8730,12292 8745,12267 8759,12245C8773,12223 8790,12196 8797,12185C8818,12149 9140,11606 9158,11575C9167,11559 9177,11543 9180,11540C9183,11537 9191,11524 9198,11510C9211,11483 9232,11448 9240,11440C9246,11434 9265,11401 9289,11355C9298,11339 9311,11320 9318,11312C9324,11305 9330,11292 9330,11284C9330,11276 9333,11270 9338,11270C9342,11270 9359,11244 9375,11212C9392,11181 9408,11153 9411,11150C9414,11147 9488,11024 9575,10875C9662,10727 9743,10590 9754,10573L9775,10540L10458,10540C10833,10540 11140,10543 11140,10546C11140,10549 11105,10604 11063,10668C11020,10733 10981,10792 10975,10802C10948,10846 10864,10976 10857,10985C10852,10991 10815,11047 10775,11110C10734,11173 10697,11230 10693,11236C10688,11241 10679,11255 10673,11266C10602,11378 10565,11436 10560,11440C10557,11443 10534,11477 10510,11515C10485,11554 10462,11587 10458,11588C10453,11590 10450,11596 10450,11600C10450,11605 10439,11626 10425,11647C10387,11705 10387,11704 10276,11875C10218,11963 10167,12040 10161,12047C10155,12054 10150,12061 10150,12064C10150,12068 10132,12097 10090,12160C10084,12168 10055,12213 10025,12260C9996,12307 9968,12350 9963,12355C9951,12369 9910,12432 9849,12530C9819,12577 9792,12620 9787,12625C9782,12631 9755,12673 9725,12720C9695,12767 9666,12811 9660,12818C9648,12831 9651,12836 9695,12886C9739,12934 9814,13022 9832,13046C9844,13062 9857,13077 9860,13080C9867,13086 10036,13282 10071,13324C10094,13352 10214,13491 10269,13555C10283,13572 10331,13628 10375,13680C10419,13732 10459,13780 10465,13786C10470,13792 10496,13821 10522,13851C10547,13881 10578,13916 10590,13930C10602,13944 10629,13975 10649,14000C10669,14025 10691,14051 10698,14059C10705,14066 10750,14118 10798,14174C10846,14229 10887,14277 10890,14280C10893,14283 10931,14328 10975,14380C11092,14519 11101,14530 11143,14576C11163,14598 11180,14620 11180,14624C11180,14627 10858,14630 10465,14630L9751,14630L9691,14551C9658,14508 9625,14466 9617,14459C9610,14451 9589,14423 9570,14396C9552,14369 9530,14340 9521,14331C9512,14322 9485,14287 9461,14255C9436,14222 9413,14193 9410,14190C9406,14187 9384,14158 9360,14125C9336,14092 9314,14063 9310,14060C9307,14057 9291,14037 9274,14015C9258,13993 9241,13970 9235,13963C9210,13933 9202,13921 9160,13865C9135,13832 9112,13803 9109,13800C9106,13797 9041,13715 8965,13616C8889,13518 8820,13429 8811,13420C8802,13410 8779,13380 8760,13353C8741,13327 8719,13297 8710,13288C8702,13279 8677,13247 8655,13216C8594,13132 8589,13138 8590,13293C8591,13365 8591,14000 8591,14703L8590,15980L7380,15980Z" style="fill:rgb(48,105,179);fill-rule:nonzero;"></path>
            <path d="M21710,15980L21710,15060L22920,15060L22922,15243C22924,15343 22924,15550 22922,15703L22919,15980L21710,15980Z" style="fill:rgb(48,105,179);fill-rule:nonzero;"></path>
            <path d="M4090,14730C3907,14705 3877,14699 3695,14643C3602,14614 3605,14616 3475,14559C3320,14492 3142,14383 3020,14281C2969,14239 2748,14020 2725,13989C2616,13843 2549,13737 2484,13608C2453,13546 2421,13484 2414,13470C2407,13456 2392,13415 2380,13380C2369,13344 2355,13308 2351,13300C2346,13291 2339,13269 2336,13250C2332,13231 2325,13206 2320,13195C2308,13167 2272,13001 2258,12905C2242,12804 2242,12393 2258,12286C2271,12194 2308,12024 2320,11995C2325,11984 2332,11959 2336,11940C2339,11921 2346,11899 2351,11890C2355,11882 2371,11839 2386,11795C2402,11751 2418,11714 2422,11712C2426,11710 2430,11703 2430,11696C2430,11678 2528,11488 2573,11417C2593,11386 2610,11357 2610,11354C2610,11351 2616,11342 2623,11335C2638,11318 2647,11306 2685,11255C2774,11134 2915,10990 3045,10884C3159,10791 3360,10673 3500,10616C3536,10601 3574,10585 3585,10581C3649,10553 3794,10511 3910,10486C4225,10417 4641,10417 4960,10486C5063,10508 5179,10540 5217,10556C5234,10564 5254,10570 5262,10570C5270,10570 5280,10574 5286,10578C5291,10583 5329,10599 5370,10616C5635,10719 5934,10941 6130,11180C6155,11210 6177,11237 6180,11240C6183,11243 6199,11265 6215,11290C6231,11315 6248,11337 6251,11340C6257,11346 6298,11413 6347,11499C6382,11560 6427,11651 6454,11715C6463,11737 6475,11763 6480,11772C6486,11782 6490,11795 6490,11801C6490,11807 6496,11826 6504,11843C6522,11884 6556,11995 6564,12040C6568,12059 6575,12084 6580,12095C6588,12115 6603,12198 6621,12335C6633,12425 6633,12764 6621,12855C6603,12992 6587,13075 6579,13084C6574,13090 6570,13104 6570,13115C6570,13163 6490,13400 6434,13517C6410,13568 6390,13614 6390,13620C6390,13625 6386,13630 6380,13630C6375,13630 6370,13635 6370,13641C6370,13651 6292,13790 6281,13800C6277,13803 6262,13825 6246,13849C6230,13874 6213,13899 6209,13904C6204,13910 6181,13940 6158,13970C6066,14092 5878,14273 5770,14345C5745,14361 5723,14377 5720,14380C5713,14387 5660,14422 5635,14436C5592,14459 5565,14475 5560,14480C5552,14488 5434,14545 5345,14583C5276,14612 5227,14629 5055,14680C5039,14685 5007,14692 4985,14695C4963,14699 4934,14706 4920,14710C4906,14715 4830,14726 4751,14735C4560,14755 4265,14753 4090,14730ZM4695,13591C4734,13580 4774,13566 4785,13561C4872,13522 4964,13474 4980,13461C4990,13452 5011,13436 5027,13425C5152,13337 5285,13159 5357,12984C5370,12952 5397,12851 5410,12780C5421,12723 5421,12471 5410,12405C5399,12336 5372,12234 5361,12213C5355,12203 5339,12168 5325,12135C5302,12082 5245,11984 5230,11970C5227,11967 5213,11949 5199,11930C5157,11875 5084,11805 5017,11755C4983,11730 4951,11707 4945,11702C4934,11694 4827,11643 4795,11630C4558,11537 4286,11539 4063,11636C4046,11644 4030,11650 4027,11650C4013,11650 3889,11728 3830,11773C3697,11876 3544,12091 3514,12215C3510,12232 3504,12247 3500,12250C3494,12255 3480,12310 3460,12410C3449,12468 3449,12711 3460,12770C3478,12863 3491,12916 3500,12932C3506,12942 3510,12955 3510,12962C3510,12979 3591,13144 3602,13148C3606,13150 3610,13156 3610,13160C3610,13165 3620,13184 3633,13202C3721,13332 3863,13452 4010,13525C4040,13540 4072,13555 4081,13560C4097,13568 4228,13605 4270,13614C4284,13616 4369,13617 4460,13615C4593,13613 4639,13608 4695,13591Z" style="fill:rgb(48,105,179);fill-rule:nonzero;"></path>
            <path d="M12950,14734C12887,14726 12826,14715 12815,14710C12804,14705 12777,14699 12755,14695C12733,14692 12704,14685 12690,14681C12676,14676 12625,14659 12575,14643C12526,14628 12484,14612 12482,14608C12480,14603 12472,14600 12465,14600C12434,14600 12156,14455 12095,14408C12090,14404 12054,14376 12015,14347C11910,14267 11904,14262 11807,14165C11657,14016 11561,13886 11458,13694C11380,13549 11365,13515 11324,13390C11310,13349 11295,13306 11290,13295C11279,13268 11242,13106 11234,13050C11231,13025 11224,12991 11219,12975C11192,12886 11192,12321 11219,12202C11225,12176 11241,12099 11256,12030C11270,11961 11285,11896 11290,11885C11295,11874 11302,11854 11305,11840C11319,11787 11385,11615 11392,11612C11396,11610 11400,11602 11400,11594C11400,11576 11483,11414 11535,11332C11658,11136 11855,10923 12045,10782C12122,10725 12405,10570 12433,10570C12438,10570 12456,10564 12473,10556C12557,10519 12649,10492 12785,10464C12916,10437 12985,10430 13165,10424C13398,10417 13568,10437 13765,10493C13960,10549 14176,10675 14298,10802C14357,10863 14430,10957 14430,10971C14430,10976 14437,10980 14445,10980C14458,10980 14460,10949 14460,10760L14460,10540L15670,10540L15670,14630L14460,14630L14460,14410C14460,14289 14456,14190 14452,14190C14448,14190 14426,14213 14405,14242C14355,14308 14257,14407 14205,14446C14183,14462 14160,14480 14153,14485C14146,14491 14135,14500 14128,14505C14113,14517 13988,14589 13950,14607C13898,14632 13796,14670 13780,14670C13771,14670 13760,14674 13754,14679C13743,14689 13678,14706 13565,14726C13448,14748 13094,14752 12950,14734ZM13715,13591C13802,13568 13800,13568 13911,13516C13978,13485 13997,13472 14047,13430C14054,13425 14063,13420 14067,13420C14083,13420 14228,13264 14268,13205C14317,13132 14360,13052 14360,13034C14360,13026 14365,13020 14370,13020C14376,13020 14380,13013 14380,13004C14380,12995 14387,12974 14395,12957C14425,12891 14450,12771 14456,12665C14470,12434 14412,12205 14291,12010C14263,11965 14235,11923 14228,11916C14221,11909 14195,11880 14170,11851C14096,11766 13975,11680 13855,11630C13828,11618 13796,11605 13785,11600C13708,11568 13609,11555 13430,11555C13242,11555 13158,11567 13073,11606C13056,11614 13038,11620 13032,11620C13015,11620 12874,11697 12821,11735C12776,11767 12628,11924 12596,11974C12491,12133 12440,12266 12413,12453C12396,12564 12396,12577 12413,12703C12428,12820 12444,12890 12470,12955C12524,13092 12567,13171 12629,13250C12671,13304 12764,13398 12803,13425C12819,13436 12841,13453 12852,13462C12872,13479 12982,13535 13050,13563C13069,13571 13117,13585 13155,13594C13194,13602 13234,13612 13245,13614C13256,13617 13348,13617 13450,13616C13600,13613 13650,13608 13715,13591Z" style="fill:rgb(48,105,179);fill-rule:nonzero;"></path>
            <path d="M18745,14734C18690,14727 18627,14716 18605,14710C18473,14673 18325,14620 18260,14586C18219,14565 18172,14540 18155,14532C18139,14523 18121,14512 18115,14507C18110,14503 18077,14480 18044,14457C17964,14403 17894,14343 17805,14253C17765,14213 17728,14180 17722,14180C17713,14180 17710,14242 17710,14405L17710,14630L16580,14630L16578,11983L16575,9335L8428,9332L280,9330L280,9100L25040,9100L25040,9330L21418,9332L17795,9335L17792,10123C17790,10770 17792,10910 17803,10910C17810,10910 17830,10895 17846,10877C17906,10809 18070,10681 18159,10633C18438,10481 18686,10420 19025,10420C19261,10420 19448,10450 19665,10522C19808,10570 20035,10683 20125,10753C20131,10757 20167,10784 20205,10812C20244,10840 20329,10918 20395,10984C20626,11215 20797,11498 20896,11810C20909,11851 20924,11899 20930,11915C20949,11975 20981,12148 20995,12275C21023,12519 21010,12791 20960,13060C20937,13181 20936,13186 20894,13318C20880,13363 20867,13406 20866,13413C20864,13420 20859,13434 20855,13445C20850,13456 20838,13487 20828,13513C20786,13622 20647,13890 20628,13898C20624,13900 20620,13906 20620,13912C20620,13917 20608,13938 20593,13958C20577,13978 20562,13999 20558,14005C20512,14069 20387,14210 20326,14267C19976,14595 19552,14751 19020,14748C18924,14748 18800,14742 18745,14734ZM19053,13591C19096,13579 19139,13565 19148,13560C19157,13555 19204,13532 19253,13509C19301,13486 19340,13463 19340,13459C19340,13454 19345,13450 19351,13450C19380,13450 19520,13315 19597,13211C19760,12994 19837,12655 19784,12392C19697,11959 19394,11650 18971,11565C18828,11536 18543,11555 18435,11600C18424,11605 18393,11618 18365,11630C18098,11742 17898,11952 17796,12227C17788,12250 17771,12314 17760,12369C17699,12669 17776,13003 17961,13235C18020,13311 18086,13377 18134,13409C18146,13417 18157,13426 18160,13429C18175,13446 18254,13492 18315,13521C18354,13538 18392,13556 18401,13560C18422,13571 18558,13608 18595,13614C18612,13616 18704,13617 18800,13615C18941,13613 18990,13608 19053,13591Z" style="fill:rgb(48,105,179);fill-rule:nonzero;"></path>
            <path d="M21710,14630L21710,10540L22920,10540L22920,14630L21710,14630Z" style="fill:rgb(48,105,179);fill-rule:nonzero;"></path>
        </g>
        <g transform="matrix(0.1,0,0,-0.1,0,2560)">
            <path d="M4260,8310L4260,7811L4211,7858C4147,7920 4136,7928 4106,7936C4092,7939 4080,7946 4080,7950C4080,7962 3972,7980 3900,7980C3768,7980 3699,7958 3593,7883C3495,7814 3434,7714 3405,7576C3386,7487 3386,7454 3404,7360C3439,7181 3558,7037 3722,6976C3782,6954 3928,6945 4001,6958C4033,6964 4079,6979 4105,6991C4153,7014 4250,7100 4250,7120C4250,7126 4255,7128 4260,7125C4266,7122 4270,7088 4270,7049L4270,6980L4450,6980L4450,8310L4260,8310ZM4056,7789C4107,7770 4184,7707 4225,7649C4269,7589 4285,7447 4257,7360C4227,7261 4151,7180 4055,7144C3978,7115 3851,7118 3779,7152C3706,7186 3650,7241 3614,7315C3588,7369 3585,7385 3585,7472C3585,7536 3589,7573 3598,7582C3604,7588 3610,7601 3610,7610C3611,7659 3741,7775 3820,7798C3883,7816 3994,7812 4056,7789Z" style="fill-rule:nonzero;"></path>
        </g>
        <g transform="matrix(0.1,0,0,-0.1,0,2560)">
            <path d="M8330,8310L8330,7960L8149,7960L8152,7888L8155,7815L8331,7809L8330,7597C8330,7480 8329,7294 8330,7183L8330,6980L8510,6980L8512,7393L8515,7805L8608,7808L8700,7811L8700,7960L8510,7960L8510,8310L8330,8310Z" style="fill-rule:nonzero;"></path>
        </g>
        <g transform="matrix(0.1,0,0,-0.1,0,2560)">
            <path d="M8840,8310L8840,8120L9030,8120L9030,8310L8840,8310Z" style="fill-rule:nonzero;"></path>
        </g>
        <g transform="matrix(0.1,0,0,-0.1,0,2560)">
            <path d="M12880,8310L12880,6980L13060,6980L13060,8310L12880,8310Z" style="fill-rule:nonzero;"></path>
        </g>
        <g transform="matrix(0.1,0,0,-0.1,0,2560)">
            <path d="M16240,8310L16240,6980L16420,6980L16420,7132L16479,7072C16512,7040 16556,7005 16577,6996C16598,6986 16626,6973 16639,6967C16654,6960 16711,6955 16784,6955C16919,6955 16962,6967 17060,7028C17136,7076 17203,7153 17243,7240C17265,7287 17290,7410 17290,7471C17290,7530 17265,7648 17241,7699C17180,7833 17042,7943 16900,7971C16781,7994 16605,7965 16552,7913C16545,7906 16535,7900 16531,7900C16527,7900 16503,7879 16477,7853L16430,7806L16430,8310L16240,8310ZM16905,7781C16967,7751 17041,7676 17071,7613C17090,7574 17094,7547 17095,7470C17095,7381 17093,7370 17061,7307C17024,7233 16966,7178 16890,7145C16821,7114 16681,7117 16615,7150C16547,7184 16485,7248 16454,7317C16431,7366 16427,7389 16427,7465C16426,7547 16429,7562 16458,7621C16489,7684 16537,7738 16590,7769C16672,7817 16819,7822 16905,7781Z" style="fill-rule:nonzero;"></path>
        </g>
        <g transform="matrix(0.1,0,0,-0.1,0,2560)">
            <path d="M17488,7848C17486,7593 17486,7294 17488,7183L17490,6980L17670,6980L17670,8310L17490,8310L17488,7848Z" style="fill-rule:nonzero;"></path>
        </g>
        <g transform="matrix(0.1,0,0,-0.1,0,2560)">
            <path d="M17910,8310L17910,8120L18100,8120L18100,8310L17910,8310Z" style="fill-rule:nonzero;"></path>
        </g>
        <g transform="matrix(0.1,0,0,-0.1,0,2560)">
            <path d="M19198,7848C19196,7593 19196,7294 19198,7183L19200,6980L19379,6980L19382,7298C19385,7600 19386,7617 19407,7663C19456,7768 19541,7815 19668,7808C19760,7803 19816,7776 19856,7719C19906,7647 19910,7612 19910,7283L19910,6980L20102,6980L20097,7313C20092,7662 20087,7708 20043,7797C20017,7852 19932,7940 19905,7940C19897,7940 19890,7944 19890,7949C19890,7962 19783,7980 19701,7980C19577,7980 19500,7953 19432,7884C19408,7860 19386,7840 19384,7840C19382,7840 19380,7946 19380,8075L19380,8310L19200,8310L19198,7848Z" style="fill-rule:nonzero;"></path>
        </g>
        <g transform="matrix(0.1,0,0,-0.1,0,2560)">
            <path d="M20350,8310L20350,8120L20540,8120L20540,8310L20350,8310Z" style="fill-rule:nonzero;"></path>
        </g>
        <g transform="matrix(0.1,0,0,-0.1,0,2560)">
            <path d="M2610,7969C2540,7954 2443,7900 2387,7844C2319,7776 2316,7773 2273,7688L2236,7615L2236,7468C2235,7363 2239,7317 2248,7309C2254,7302 2260,7289 2260,7281C2260,7261 2332,7142 2363,7110C2434,7038 2478,7009 2565,6975C2606,6959 2639,6955 2745,6956C2869,6956 2878,6958 2940,6987C3060,7043 3127,7106 3195,7223L3222,7270L3121,7270C3033,7270 3019,7268 3013,7253C3005,7228 2938,7160 2923,7160C2916,7160 2910,7156 2910,7151C2910,7130 2809,7108 2727,7111C2661,7114 2634,7121 2587,7144C2513,7182 2458,7241 2431,7314C2392,7420 2350,7409 2828,7412L3245,7415L3245,7505C3244,7608 3225,7675 3172,7758C3106,7860 2977,7948 2863,7969C2796,7982 2673,7982 2610,7969ZM2883,7797C2912,7784 2952,7759 2972,7741C3007,7711 3070,7602 3070,7573C3070,7562 3009,7560 2739,7560L2409,7560L2415,7583C2452,7705 2528,7781 2649,7816C2714,7835 2819,7826 2883,7797Z" style="fill-rule:nonzero;"></path>
        </g>
        <g transform="matrix(0.1,0,0,-0.1,0,2560)">
            <path d="M6180,7969C6068,7947 5950,7867 5881,7767C5739,7558 5767,7267 5946,7093C6064,6978 6237,6928 6418,6959C6555,6981 6696,7081 6761,7200C6769,7214 6778,7227 6781,7230C6791,7238 6809,7308 6802,7314C6799,7317 6758,7320 6710,7320L6624,7320L6602,7281C6573,7231 6513,7177 6453,7148C6381,7114 6246,7116 6170,7152C6103,7183 6047,7238 6012,7305C5988,7350 5985,7365 5985,7465C5986,7566 5988,7580 6014,7633C6046,7697 6094,7743 6167,7780C6237,7816 6353,7820 6434,7790C6500,7765 6569,7707 6602,7649L6624,7610L6718,7610C6810,7610 6811,7610 6805,7633C6783,7706 6713,7816 6669,7848C6659,7855 6645,7866 6638,7874C6609,7903 6492,7957 6436,7968C6368,7982 6246,7982 6180,7969Z" style="fill-rule:nonzero;"></path>
        </g>
        <g transform="matrix(0.1,0,0,-0.1,0,2560)">
            <path d="M7320,7969C7208,7944 7101,7869 7031,7767C7016,7744 6999,7714 6995,7700C6991,7686 6984,7671 6980,7665C6961,7641 6948,7524 6952,7427C6959,7290 6996,7196 7082,7104C7143,7039 7188,7009 7275,6975C7347,6946 7556,6948 7617,6977C7685,7009 7755,7060 7780,7096C7792,7115 7806,7130 7811,7130C7816,7130 7820,7096 7820,7055L7820,6980L8000,6980L8000,7960L7820,7960L7820,7880C7820,7836 7816,7800 7811,7800C7805,7800 7794,7812 7785,7828C7763,7864 7688,7922 7625,7950C7585,7969 7554,7974 7470,7976C7412,7978 7345,7974 7320,7969ZM7623,7780C7678,7752 7752,7683 7775,7637C7864,7459 7797,7241 7626,7153C7582,7130 7562,7127 7480,7126C7397,7125 7378,7129 7330,7151C7171,7226 7093,7409 7149,7572C7190,7690 7253,7754 7380,7804C7388,7807 7436,7808 7485,7807C7556,7805 7585,7799 7623,7780Z" style="fill-rule:nonzero;"></path>
        </g>
        <g transform="matrix(0.1,0,0,-0.1,0,2560)">
            <path d="M9610,7969C9498,7945 9365,7849 9306,7747C9253,7657 9230,7574 9230,7470C9230,7366 9239,7324 9277,7240C9327,7133 9401,7057 9506,7005C9667,6926 9879,6934 10037,7026C10055,7037 10070,7048 10070,7053C10070,7057 10075,7060 10080,7060C10096,7060 10163,7138 10198,7199C10319,7409 10282,7692 10111,7849C10078,7879 10004,7930 9993,7930C9989,7930 9973,7936 9958,7944C9893,7978 9716,7990 9610,7969ZM9844,7798C9929,7773 10003,7711 10048,7626C10073,7579 10075,7565 10075,7465C10075,7369 10072,7349 10051,7311C10017,7245 9954,7183 9891,7152C9843,7129 9823,7125 9750,7125C9648,7125 9579,7153 9513,7219C9334,7399 9406,7712 9645,7798C9686,7812 9794,7813 9844,7798Z" style="fill-rule:nonzero;"></path>
        </g>
        <g transform="matrix(0.1,0,0,-0.1,0,2560)">
            <path d="M10854,7971C10795,7956 10733,7920 10689,7873L10645,7826L10639,7960L10470,7960L10470,6980L10650,6980L10650,7269C10650,7501 10653,7571 10666,7621C10675,7655 10686,7688 10691,7694C10755,7775 10809,7803 10907,7808C11023,7814 11100,7777 11150,7689L11175,7645L11178,7313L11181,6980L11370,6980L11370,7304C11370,7648 11364,7703 11318,7794C11272,7884 11197,7943 11096,7969C11047,7981 10903,7982 10854,7971Z" style="fill-rule:nonzero;"></path>
        </g>
        <g transform="matrix(0.1,0,0,-0.1,0,2560)">
            <path d="M11935,7967C11908,7962 11883,7954 11880,7950C11877,7946 11864,7939 11850,7935C11774,7912 11662,7800 11620,7705C11607,7678 11592,7644 11586,7631C11571,7599 11571,7330 11586,7299C11593,7286 11610,7249 11625,7217C11657,7148 11744,7050 11803,7018C11899,6964 11938,6955 12070,6955C12191,6956 12197,6957 12261,6988C12328,7022 12378,7063 12406,7106C12430,7142 12440,7126 12440,7049L12440,6980L12620,6980L12620,7960L12440,7960L12440,7885C12440,7825 12437,7810 12425,7810C12417,7810 12410,7814 12410,7820C12410,7836 12335,7904 12294,7925C12273,7936 12253,7947 12250,7951C12226,7977 12031,7987 11935,7967ZM12201,7798C12308,7762 12397,7664 12426,7550C12466,7394 12379,7214 12232,7147C12194,7130 12166,7125 12090,7126C12008,7126 11988,7130 11945,7152C11855,7199 11795,7273 11766,7372C11740,7463 11747,7538 11792,7630C11826,7700 11908,7770 11985,7798C12026,7812 12159,7813 12201,7798Z" style="fill-rule:nonzero;"></path>
        </g>
        <g transform="matrix(0.1,0,0,-0.1,0,2560)">
            <path d="M14275,7969C14205,7953 14151,7921 14087,7859L14025,7798L14019,7960L13850,7960L13850,6620L14030,6620L14030,6870C14030,7008 14033,7120 14036,7120C14039,7120 14063,7098 14088,7072C14116,7043 14163,7010 14205,6989C14273,6957 14279,6955 14395,6955C14490,6955 14525,6959 14565,6974C14713,7032 14802,7126 14871,7300C14892,7354 14890,7571 14867,7635C14820,7769 14729,7885 14640,7925C14621,7934 14596,7945 14585,7950C14523,7979 14360,7988 14275,7969ZM14514,7779C14613,7730 14672,7650 14700,7528C14711,7478 14711,7460 14697,7395C14678,7308 14664,7283 14600,7219C14531,7148 14474,7126 14365,7126C14292,7126 14266,7130 14226,7149C14173,7174 14080,7255 14080,7276C14080,7284 14076,7290 14072,7290C14056,7290 14026,7403 14026,7465C14026,7527 14056,7640 14072,7640C14076,7640 14080,7646 14080,7653C14080,7671 14154,7746 14193,7767C14254,7801 14295,7809 14380,7807C14447,7805 14476,7799 14514,7779Z" style="fill-rule:nonzero;"></path>
        </g>
        <g transform="matrix(0.1,0,0,-0.1,0,2560)">
            <path d="M18523,7968C18499,7962 18480,7953 18480,7949C18480,7944 18473,7940 18464,7940C18437,7940 18345,7839 18332,7794C18316,7738 18317,7637 18335,7594C18352,7554 18403,7502 18452,7478C18470,7469 18526,7447 18575,7429C18625,7412 18667,7393 18668,7389C18670,7384 18680,7380 18691,7380C18713,7380 18745,7363 18771,7338C18837,7275 18817,7166 18730,7118C18679,7090 18594,7097 18546,7134C18507,7163 18480,7207 18480,7240C18480,7259 18474,7260 18386,7260L18291,7260L18297,7223C18312,7121 18379,7033 18480,6983C18530,6958 18545,6956 18650,6956C18756,6956 18769,6958 18817,6983C18923,7038 18982,7118 18996,7226C19015,7380 18936,7484 18755,7540C18717,7552 18665,7569 18640,7576C18502,7619 18458,7722 18546,7799C18577,7827 18588,7830 18643,7830C18697,7830 18710,7826 18737,7803C18755,7787 18773,7759 18778,7740L18786,7705L18870,7702C18916,7700 18957,7703 18962,7708C18974,7720 18942,7820 18912,7860C18849,7944 18788,7972 18660,7976C18608,7978 18546,7974 18523,7968Z" style="fill-rule:nonzero;"></path>
        </g>
        <g transform="matrix(0.1,0,0,-0.1,0,2560)">
            <path d="M21170,7973C21116,7963 21042,7920 21003,7876C20981,7851 20960,7830 20956,7830C20953,7830 20950,7859 20950,7895L20950,7960L20781,7960L20778,7673C20776,7514 20776,7294 20778,7183L20780,6980L20960,6980L20960,7243C20960,7387 20965,7538 20970,7579C20989,7723 21071,7800 21213,7808C21379,7818 21467,7741 21490,7569C21495,7528 21500,7379 21500,7238L21500,6980L21682,6980L21678,7333C21674,7702 21672,7716 21624,7809C21604,7848 21519,7930 21493,7936C21480,7940 21470,7945 21470,7949C21470,7970 21250,7987 21170,7973Z" style="fill-rule:nonzero;"></path>
        </g>
        <g transform="matrix(0.1,0,0,-0.1,0,2560)">
            <path d="M22250,7969C22225,7963 22201,7954 22196,7949C22190,7944 22179,7940 22171,7940C22143,7940 22036,7859 21993,7805C21915,7710 21880,7604 21880,7464C21880,7372 21901,7277 21937,7205C21981,7118 22085,7027 22191,6983C22249,6959 22267,6957 22380,6957C22499,6957 22508,6958 22565,6987C22621,7016 22658,7047 22711,7110L22732,7135L22728,7035C22724,6952 22719,6926 22697,6884C22638,6769 22497,6689 22377,6703C22304,6712 22223,6755 22164,6817L22113,6870L21911,6870L21920,6843C21949,6745 22043,6646 22157,6592L22235,6555L22386,6555C22478,6555 22546,6559 22561,6566C22574,6573 22617,6592 22655,6611C22703,6633 22744,6663 22786,6705C22846,6766 22866,6805 22909,6941C22916,6965 22920,7134 22920,7468L22920,7960L22730,7960L22730,7812L22676,7866C22594,7947 22530,7973 22400,7976C22342,7978 22275,7974 22250,7969ZM22553,7780C22684,7714 22755,7561 22729,7401C22711,7285 22644,7196 22540,7148C22504,7131 22475,7127 22400,7127C22299,7127 22261,7138 22192,7190C22112,7250 22052,7391 22063,7495C22078,7643 22160,7744 22310,7804C22318,7807 22366,7808 22415,7807C22487,7805 22515,7799 22553,7780Z" style="fill-rule:nonzero;"></path>
        </g>
        <g transform="matrix(0.1,0,0,-0.1,0,2560)">
            <path d="M4690,7643C4690,7308 4698,7230 4739,7145C4770,7080 4834,7015 4897,6984C4951,6958 4963,6956 5085,6956C5209,6955 5218,6957 5270,6984C5300,6999 5346,7035 5373,7062L5420,7112L5420,6980L5590,6980L5590,7960L5410,7960L5410,7658C5410,7336 5405,7298 5359,7228C5301,7139 5178,7100 5055,7131C5001,7145 4937,7198 4908,7253C4886,7293 4886,7308 4882,7628L4879,7960L4690,7960L4690,7643Z" style="fill-rule:nonzero;"></path>
        </g>
        <g transform="matrix(0.1,0,0,-0.1,0,2560)">
            <path d="M8840,7961L8840,6980L9030,6980L9028,7468L9025,7955L8933,7958L8840,7961Z" style="fill-rule:nonzero;"></path>
        </g>
        <g transform="matrix(0.1,0,0,-0.1,0,2560)">
            <path d="M15089,7673C15088,7306 15088,7297 15106,7225C15135,7113 15199,7034 15300,6983C15351,6958 15365,6956 15480,6956C15595,6955 15609,6957 15660,6981C15690,6996 15736,7028 15761,7054C15787,7079 15810,7100 15814,7100C15817,7100 15820,7073 15820,7040L15820,6980L15990,6980L15990,7960L15810,7960L15810,7694C15810,7338 15796,7256 15723,7189C15669,7138 15632,7126 15535,7126C15432,7126 15379,7146 15336,7203C15281,7275 15277,7299 15272,7643L15268,7960L15090,7960L15089,7673Z" style="fill-rule:nonzero;"></path>
        </g>
        <g transform="matrix(0.1,0,0,-0.1,0,2560)">
            <path d="M17910,7961L17910,6980L18100,6980L18098,7468L18095,7955L18003,7958L17910,7961Z" style="fill-rule:nonzero;"></path>
        </g>
        <g transform="matrix(0.1,0,0,-0.1,0,2560)">
            <path d="M20350,7960L20350,6980L20540,6980L20540,7960L20350,7960Z" style="fill-rule:nonzero;"></path>
        </g>
    </g>
</svg>
