<svg width="48" height="48" viewBox="0 0 48 48" fill="none" xmlns="http://www.w3.org/2000/svg">
<circle cx="32" cy="32" r="16" fill="#CCE2FF"/>
<circle cx="3" cy="3" r="3" fill="#4584D5"/>
<path d="M28.9992 13.9996C27.1492 11.833 23.7659 11.2663 21.1659 10.5496C18.5659 9.83298 16.3659 8.88298 13.8659 8.24964C12.1585 7.72267 10.4223 7.29418 8.66586 6.96631C7.96586 6.96631 7.86586 7.96631 8.66586 8.13298C12.7506 9.05145 16.7615 10.2715 20.6659 11.783C22.9159 12.4496 26.1992 13.083 27.6825 14.8996C28.4325 15.8163 26.8492 31.6496 26.6159 36.4496C26.6159 37.983 26.6159 39.533 26.4159 41.033C26.2659 41.9663 26.4159 42.433 23.8325 41.883C19.0588 40.5441 14.4084 38.7988 9.93252 36.6663C9.13252 36.1996 8.11586 35.533 7.91586 34.633C7.78252 33.983 7.59919 31.083 7.56586 29.883C7.04919 13.7496 8.03252 8.74964 7.33252 8.39964C6.63252 8.04964 6.61586 8.68298 6.59919 9.39964C6.43252 12.583 5.66586 31.4163 6.31586 34.9496C6.51101 35.6426 6.85115 36.2863 7.31374 36.8379C7.77633 37.3896 8.35082 37.8367 8.99919 38.1496C11.6945 39.5273 14.4784 40.7244 17.3325 41.733C19.4659 42.5996 24.9659 44.733 27.0159 43.7163C29.0659 42.6996 28.4492 39.6496 28.5825 36.533C29.6825 17.2163 29.9325 15.1163 28.9992 13.9996Z" fill="#272E35"/>
<path d="M41.8663 16.9998C41.9997 13.8831 42.333 5.46647 39.4163 4.26647C37.6663 3.53314 11.633 4.56647 8.66635 4.99981C8.50126 5.01262 8.34777 5.08958 8.23873 5.21419C8.1297 5.3388 8.0738 5.50115 8.08301 5.66647C8.23301 6.13314 12.683 6.39981 15.283 7.01647C15.4497 7.01647 23.833 9.11647 25.983 9.76647C33.9997 12.3331 33.3997 11.8831 33.5997 14.5665C33.6997 15.9498 33.5997 17.4665 33.6997 18.5165C33.833 20.1831 34.8997 36.3331 34.0997 37.5165C33.2997 38.6998 30.3663 37.5165 29.383 38.0498C28.733 38.3665 29.0497 39.0998 29.633 39.1498C31.4163 39.3165 34.133 39.6831 35.1663 38.2498C35.6663 37.5665 35.4997 36.5831 35.7997 35.1998C35.9855 33.5397 36.0189 31.866 35.8997 30.1998C35.8997 25.8498 35.8163 22.5165 35.5997 18.3498C35.483 16.4331 35.7663 13.3498 34.833 11.4665C34.6059 11.1087 34.2742 10.8294 33.883 10.6665C33.6497 10.5498 28.6163 8.81647 26.4497 8.24981C23.7163 7.49981 15.033 5.83314 14.4163 5.66647C14.583 5.66647 38.733 5.86647 38.8663 6.06647C41.2663 9.68314 39.433 24.5498 39.683 28.4331C39.9655 30.5652 40.0603 32.7179 39.9663 34.8665C37.7663 35.1165 37.7497 34.7665 37.483 34.7665C37.3371 34.7665 37.1972 34.8244 37.0941 34.9276C36.991 35.0307 36.933 35.1706 36.933 35.3165C36.933 35.9665 37.683 36.0498 38.3163 36.0831C38.9878 36.129 39.6616 36.129 40.333 36.0831C41.8497 35.8831 41.0663 34.1665 41.8663 16.9998Z" fill="#272E35"/>
<path d="M23.0827 20.1996C23.0827 19.4163 23.5161 17.983 22.4327 17.4663C20.1327 16.383 17.7827 16.5163 15.6661 15.6663C14.6342 15.4631 13.6199 15.1789 12.6327 14.8163C12.4661 14.3829 11.8327 14.3996 11.5327 14.9663C11.2441 16.1722 11.1097 17.4099 11.1327 18.6496C10.5494 21.8996 10.4827 21.8996 10.8327 22.283C11.1827 22.6663 11.8327 22.6663 12.1661 22.833C15.0663 24.216 18.0564 25.402 21.1161 26.383C21.9827 26.383 22.5827 25.0663 22.7827 24.2496C23.0286 22.9144 23.1291 21.5565 23.0827 20.1996ZM21.2994 20.0663C21.307 21.4688 21.0933 22.8637 20.6661 24.1996C17.7301 23.3164 14.8476 22.2647 12.0327 21.0496C12.2615 19.3317 12.3618 17.5991 12.3327 15.8663C13.2192 16.2212 14.1264 16.5218 15.0494 16.7663C17.0327 17.7496 19.4827 17.9163 21.3827 18.8329C21.1327 18.9996 21.3327 19.833 21.2994 20.0663Z" fill="#272E35"/>
<path d="M21.2994 20.0663C21.307 21.4688 21.0933 22.8637 20.6661 24.1996C17.7301 23.3164 14.8476 22.2647 12.0327 21.0496C12.2615 19.3317 12.3618 17.5991 12.3327 15.8663C13.2192 16.2212 14.1264 16.5218 15.0494 16.7663C17.0327 17.7496 19.4827 17.9163 21.3827 18.8329C21.1327 18.9996 21.3327 19.833 21.2994 20.0663Z" fill="#FBCB74"/>
<path d="M17.3326 28.7166C15.9326 28.3666 13.6326 27.9833 11.3826 27.3333C11.5659 27.3333 10.9159 27.1 10.7493 27.6166C10.5826 28.1333 10.9493 28.2 12.0493 28.7833C13.4047 29.6216 14.9106 30.1877 16.4826 30.45C22.3326 31.5166 20.4993 31.55 21.2659 31.4833C21.4162 31.4833 21.5604 31.4236 21.6666 31.3173C21.7729 31.2111 21.8326 31.0669 21.8326 30.9166C21.7659 30.0666 18.5493 29 17.3326 28.7166Z" fill="#272E35"/>
</svg>
